<?xml version="1.0" encoding="utf-8"?>
<!-- Generator: Adobe Illustrator 25.0.1, SVG Export Plug-In . SVG Version: 6.00 Build 0)  -->
<svg version="1.1" id="Layer_1" xmlns="http://www.w3.org/2000/svg" xmlns:xlink="http://www.w3.org/1999/xlink" x="0px" y="0px"
	 viewBox="0 0 793.9 1034" style="enable-background:new 0 0 793.9 1034;" xml:space="preserve">
<style type="text/css">
	.st0{fill:#443232;}
</style>
<path class="st0" d="M787.7,580.3l-6.1-6.3c-4-4.1-9.4-6.4-15.1-6.4c0,0,0,0,0,0c-5.7,0-11,2.3-15,6.4
	c-49.1,50.2-109.8,112.4-169,172.9c-46.8,47.9-92.6,94.8-131,134l-49.3,50.5c-0.1,0.1-0.2,0.2-0.2,0.2l-5.2,5.6l-4.7-4.8L42,574.3
	c-4-4.1-9.3-6.4-15-6.4c-5.7,0-11,2.2-15,6.3l-5.4,5.5c-8.1,8.3-8.1,21.7,0,30L382.2,994c4,4.1,9.3,6.3,15,6.3c5.7,0,11-2.3,15-6.3
	l375.4-383.8C795.7,602,795.7,588.6,787.7,580.3z"/>
</svg>
