<svg id="Layer_1" data-name="Layer 1" xmlns="http://www.w3.org/2000/svg" viewBox="0 0 1186 585.97"><defs><style>.cls-1{fill:none;stroke:#000;stroke-linecap:round;stroke-miterlimit:10;stroke-width:2px;}</style></defs><path class="cls-1" d="M0,592l18.68-3.69c4.32-.86,11.41-2.1,15.76-2.77l6.43-1a45.7,45.7,0,0,0,14.67-5.5l12.15-7.7a32.64,32.64,0,0,1,14.76-4.28h9.68a148.76,148.76,0,0,1,15.93,1l10.66,1.37a26.17,26.17,0,0,0,14.73-3.19l11.22-7a60.19,60.19,0,0,1,14.58-6.1l9.26-2.23a70.94,70.94,0,0,0,14.77-5.76l9.12-5.07A54.71,54.71,0,0,1,207.29,535L218,533.26A120.69,120.69,0,0,1,233.92,532h35.35a122.57,122.57,0,0,0,15.9-1.26L296.22,529c4.35-.7,11.41-2.06,15.7-3l8.94-2a50.75,50.75,0,0,0,14.42-6.28l9.83-6.68a56.61,56.61,0,0,1,14.35-6.55l10.66-2.85a117.6,117.6,0,0,0,15-5.34L396.67,491c4-1.8,10.56-4.8,14.55-6.65l9.87-4.58c4-1.85,10.5-4.91,14.48-6.8l11.23-5.33c4-1.88,10.64-4.56,14.81-6l9.64-3.21a109.83,109.83,0,0,1,15.5-3.68l8.11-1.18a134.5,134.5,0,0,1,15.92-1.15H522.2A31.07,31.07,0,0,0,536.86,448l11.49-7.66a46.4,46.4,0,0,1,14.53-5.87l8.2-1.49a73.48,73.48,0,0,0,15.1-4.86l11.23-5.33A146.05,146.05,0,0,0,611.34,415l11.39-7.39a152.09,152.09,0,0,1,13.92-7.83l10-4.8a110.81,110.81,0,0,1,14.91-5.64L674,385.85a110.81,110.81,0,0,0,14.91-5.64l10-4.8a136.15,136.15,0,0,1,14.83-5.89l9.56-3c4.19-1.33,10.9-3.91,14.9-5.73l10.26-4.68a152.66,152.66,0,0,1,14.92-5.69l10-3.09c4.21-1.31,11.06-3.51,15.23-4.9l10.94-3.65a39.54,39.54,0,0,0,13.2-8.24l13.16-13.39A146.33,146.33,0,0,0,836.22,305l15.21-20.28A98,98,0,0,1,862.19,273l12.89-11.53c3.28-2.93,8.42-8,11.43-11.17L900.82,235c3-3.21,7.78-8.6,10.61-12L926,205.69a30.24,30.24,0,0,1,12.85-8.25l11.56-3.16c4.24-1.17,11.26-2.74,15.6-3.5l9-1.59a20,20,0,0,0,12-8.25l15.73-26.31c2.26-3.78,6.21-9.79,8.78-13.36l16.34-22.71a36.89,36.89,0,0,1,11.9-9.92l10.35-4.9a59.92,59.92,0,0,0,13-8.94l15-14.22a56.3,56.3,0,0,1,13.09-8.78L1101.83,67a140.62,140.62,0,0,0,14.08-7.51l10.81-6.75a121.34,121.34,0,0,0,12.81-9.51l12.33-10.8c3.31-2.89,8.93-7.39,12.47-10L1184,8" transform="translate(1 -7.03)"/></svg>