<svg xmlns="http://www.w3.org/2000/svg" viewBox="0 0 100 100">
    <defs>
        <style>.cls-2{fill:#c4d7c0}</style>
    </defs>
    <g id="Layer_7" data-name="Layer 7">
        <path class="cls-2" d="M50,10.7A39.3,39.3,0,1,0,89.3,50,39.34,39.34,0,0,0,50,10.7ZM50,83C33.49,83,20.1,61.51,20.1,45a29.9,29.9,0,0,1,59.8,0C79.9,61.51,66.51,83,50,83Z"/>
        <circle class="cls-2" cx="50" cy="50" r="19"/>
        <path class="cls-2" d="M50,16.1A28.9,28.9,0,1,0,78.9,45,28.93,28.93,0,0,0,50,16.1ZM50,70A20,20,0,0,1,30,50c0-11,9-22.82,20-22.82S70,39,70,50A20,20,0,0,1,50,70Z"/>
    </g>
</svg>