<svg xmlns="http://www.w3.org/2000/svg" viewBox="0 0 100 110">
    <defs>
        <style>.cls-1{fill:none;}.cls-1,.cls-2{stroke:#080305;stroke-miterlimit:10;stroke-width:2px;}.cls-2{fill:#080305;}</style>
        <style>.cls-3{fill:#080305}</style>

    </defs>
    <g id="Layer_5" data-name="Layer 5">
        <path class="cls-1" d="M56.5,16.5c0,3.59-2.91-1.5-6.5-1.5s-6.5,5.09-6.5,1.5a6.5,6.5,0,0,1,13,0Z"/>
        <path class="cls-1" d="M61,33.5c0,6.08-4.92,0-11,0s-11,6.08-11,0a11,11,0,0,1,22,0Z"/>
        <path class="cls-1" d="M50,57.29a22.22,22.22,0,0,1,13.61,4.64,15.5,15.5,0,1,0-27.22,0A22.25,22.25,0,0,1,50,57.29Z"/>
        <circle class="cls-2" cx="50" cy="77.65" r="21.86"/>
        <path class="cls-2" d="M51.26,3.61c0,.7-.56-1.26-1.26-1.26s-1.26,2-1.26,1.26a1.26,1.26,0,1,1,2.52,0Z"/>
    </g>
</svg>