<svg xmlns="http://www.w3.org/2000/svg" viewBox="0 0 100 100">
    <defs>
        <style>.cls-2{fill:#10040e}</style>
    </defs>
    <g id="Layer_3" data-name="Layer 3">
        <circle class="cls-2" cx="24.84" cy="24.66" r="20"/>
        <path class="cls-2" d="M18.81,71.39a12,12,0,1,1-12,12,12,12,0,0,1,12-12m0-2a14,14,0,1,0,14,14,14,14,0,0,0-14-14Z"/>
        <path class="cls-2" d="M75.16,8.18a18,18,0,1,1-18,18,18,18,0,0,1,18-18m0-2a20,20,0,1,0,20,20,20,20,0,0,0-20-20Z"/>
        <path class="cls-2" d="M75.16,68a11.7,11.7,0,1,1-11.7,11.7A11.72,11.72,0,0,1,75.16,68m0-2a13.7,13.7,0,1,0,13.7,13.7A13.71,13.71,0,0,0,75.16,66Z"/>
        <path class="cls-2" d="M42.16,55.35a4.33,4.33,0,1,1-4.32,4.32,4.33,4.33,0,0,1,4.32-4.32m0-6A10.33,10.33,0,1,0,52.49,59.67,10.32,10.32,0,0,0,42.16,49.35Z"/>
    </g>
</svg>